#!OML:ASF H:\Terrain\Patient Classification 1\Terrain2\Thursday\justin.ASF
:FULLY-SPECIFIED
:DEGREES
4156
root 30.4371 17.9428 0.823844 -1.25986 259.354 1.96164
lowerback 5.61025 0.525742 0.415424
upperback 2.28423 0.674052 2.80681
thorax -0.823811 0.293236 2.61199
lowerneck -13.4221 -0.509003 -7.97129
upperneck 37.6836 -1.19039 2.61772
head 15.5874 -1.87173 2.17742
rclavicle 1.72943e-014 -7.95139e-015
rhumerus -31.7647 -4.31615 -82.8472
rradius 34.9721
rwrist -14.3322
rhand -22.6498 13.611
rfingers 7.12502
rthumb 3.78132 -16.3352
lclavicle 1.72943e-014 -7.95139e-015
lhumerus -34.6437 9.05743 82.9596
lradius 26.6427
lwrist 0.810084
lhand -17.7988 21.3805
lfingers 7.12502
lthumb 8.46448 51.1909
rfemur -12.41 -3.51696 20.8979
rtibia 44.0535
rfoot -24.7262 -2.81441
rtoes -8.79522
lfemur -9.50643 -1.78317 -19.5339
ltibia 26.6288
lfoot -9.44547 -17.5043
ltoes 28.0468
4157
root 30.4322 17.9289 0.803308 0.381257 259.913 0.310173
lowerback 5.67679 0.485702 0.104478
upperback 2.34127 0.605738 2.64197
thorax -0.800919 0.259356 2.621
lowerneck -13.549 -0.551788 -8.04374
upperneck 37.6424 -1.26656 2.79944
head 15.6039 -1.88015 2.25731
rclavicle 1.04362e-014 -1.19271e-014
rhumerus -31.6762 -4.15775 -83.1993
rradius 35.3245
rwrist -14.7907
rhand -22.5052 13.5043
rfingers 7.12502
rthumb 3.92089 -16.4394
lclavicle 1.04362e-014 -1.19271e-014
lhumerus -34.4813 9.13201 82.9019
lradius 26.6207
lwrist 0.56006
lhand -17.5655 21.4367
lfingers 7.12502
lthumb 8.68962 51.2378
rfemur -12.1699 -3.01129 20.5693
rtibia 43.0892
rfoot -24.8192 -2.26775
rtoes -10.1342
lfemur -9.66193 -1.82568 -19.7806
ltibia 26.8735
lfoot -9.46571 -18.1089
ltoes 28.5447
4158
root 30.426 17.9133 0.783669 -1.11644 260.446 1.90259
lowerback 5.69875 0.50934 0.429543
upperback 2.38591 0.651128 2.64712
thorax -0.765668 0.28214 2.44036
lowerneck -13.7203 -0.666716 -8.08969
upperneck 37.6176 -1.45172 2.97638
head 15.6484 -1.92979 2.31276
rclavicle 9.74045e-015 1.03368e-014
rhumerus -31.5859 -4.28564 -83.3228
rradius 35.5475
rwrist -15.3203
rhand -22.1751 14.0245
rfingers 7.12502
rthumb 4.23965 -15.9131
lclavicle 9.74045e-015 1.03368e-014
lhumerus -34.2741 9.46514 82.8027
lradius 26.5867
lwrist -0.168406
lhand -17.0413 21.5936
lfingers 7.12502
lthumb 9.19551 51.3731
rfemur -11.9896 -2.47187 20.856
rtibia 42.135
rfoot -24.778 -1.26133
rtoes -9.9056
lfemur -9.9022 -1.84415 -19.4231
ltibia 27.0906
lfoot -9.45726 -18.5157
ltoes 28.0265
4159
root 30.4161 17.9228 0.761975 -3.59019 260.954 4.51949
lowerback 5.66565 0.479096 0.842126
upperback 2.37107 0.63058 2.70415
thorax -0.757649 0.272812 2.26844
lowerneck -13.7187 -0.691781 -7.8369
upperneck 37.5682 -1.50394 2.84965
head 15.6231 -1.9263 2.20482
rclavicle -1.0635e-014 -7.95139e-015
rhumerus -31.6003 -4.14322 -83.4429
rradius 35.7589
rwrist -15.6177
rhand -21.3621 14.6008
rfingers 7.12502
rthumb 5.02477 -15.3196
lclavicle -1.0635e-014 -7.95139e-015
lhumerus -34.2123 9.4263 82.819
lradius 26.6341
lwrist -0.350164
lhand -16.9394 21.6001
lfingers 7.12502
lthumb 9.29383 51.3752
rfemur -11.7378 -1.52978 21.26
rtibia 41.1304
rfoot -24.7604 0.123979
rtoes -7.12495
lfemur -10.1522 -2.15903 -18.8461
ltibia 27.3958
lfoot -9.32772 -18.8807
ltoes 29.242
4160
root 30.4024 17.9344 0.735032 -3.15471 261.403 4.19265
lowerback 5.49318 0.441989 0.615206
upperback 2.40157 0.566284 2.70788
thorax -0.630496 0.239704 2.4049
lowerneck -13.7309 -0.685987 -7.65556
upperneck 37.5405 -1.46119 2.6472
head 15.6062 -1.90565 2.09301
rclavicle -2.11706e-014 -6.36111e-015
rhumerus -31.5429 -4.38476 -83.346
rradius 36.0216
rwrist -14.0625
rhand -20.4368 13.8278
rfingers 7.12502
rthumb 5.91815 -16.0696
lclavicle -2.11706e-014 -6.36111e-015
lhumerus -34.1481 9.51929 82.8437
lradius 26.6641
lwrist -0.500919
lhand -16.7318 21.2647
lfingers 7.12502
lthumb 9.4941 51.0308
rfemur -11.3988 -0.135692 21.0018
rtibia 40.2803
rfoot -24.6236 2.49653
rtoes 0.834909
lfemur -10.2289 -2.49447 -18.7914
ltibia 27.4179
lfoot -9.01892 -19.1252
ltoes 31.2878
4161
root 30.3883 17.898 0.711427 -2.72076 261.745 3.78469
lowerback 5.39991 0.394024 0.38455
upperback 2.42011 0.489751 2.72443
thorax -0.558761 0.200081 2.55685
lowerneck -13.6117 -0.696226 -7.73821
upperneck 37.4179 -1.42962 2.5965
head 15.5157 -1.90498 2.09045
rclavicle -2.49475e-014 -1.35174e-014
rhumerus -31.5049 -4.69237 -83.1554
rradius 36.4197
rwrist -10.4602
rhand -19.273 11.0773
rfingers 7.12502
rthumb 7.04164 -18.7856
lclavicle -2.49475e-014 -1.35174e-014
lhumerus -34.2607 9.80224 82.7984
lradius 26.7792
lwrist -0.609054
lhand -16.4538 20.8041
lfingers 7.12502
lthumb 9.76233 50.5579
rfemur -11.4258 -0.849184 21.1882
rtibia 39.6885
rfoot -24.1519 -0.182988
rtoes -14.3847
lfemur -10.1228 -2.47019 -18.8292
ltibia 27.0921
lfoot -8.79911 -19.3287
ltoes 31.2612
4162
root 30.3697 17.9232 0.6875 -2.97452 262.145 4.04177
lowerback 5.48606 0.273708 0.340742
upperback 2.34444 0.33252 2.75863
thorax -0.678334 0.122472 2.62584
lowerneck -13.348 -0.639969 -7.9083
upperneck 37.2084 -1.27318 2.5198
head 15.3406 -1.86645 2.11187
rclavicle -7.95139e-015 -1.19271e-014
rhumerus -31.775 -2.93873 -84.0821
rradius 36.8303
rwrist -12.919
rhand -22.3371 12.1769
rfingers 7.12502
rthumb 4.08327 -17.7637
lclavicle -7.95139e-015 -1.19271e-014
lhumerus -34.606 9.85962 82.8879
lradius 27.048
lwrist -0.256304
lhand -16.5271 20.6706
lfingers 7.12502
lthumb 9.69159 50.4276
rfemur -10.9854 0.727912 20.9886
rtibia 38.979
rfoot -23.2619 3.05049
rtoes -1.33462
lfemur -10.0912 -2.40588 -18.776
ltibia 27.0888
lfoot -8.99793 -19.6638
ltoes 29.8093
4163
root 30.3524 17.9717 0.660652 -2.85014 262.572 3.951
lowerback 5.55176 0.163078 0.183852
upperback 2.29016 0.181281 2.81127
thorax -0.764743 0.0469522 2.77792
lowerneck -13.3248 -0.576435 -8.15134
upperneck 37.1925 -1.10085 2.52224
head 15.3185 -1.82666 2.18442
rclavicle -1.6201e-014 1.98785e-014
rhumerus -31.9377 -1.99614 -84.4921
rradius 37.2226
rwrist -13.4343
rhand -23.2029 12.3718
rfingers 7.12502
rthumb 3.24711 -17.5832
lclavicle -1.6201e-014 1.98785e-014
lhumerus -34.7777 9.70121 83.1091
lradius 27.2804
lwrist 0.183662
lhand -16.5421 20.8437
lfingers 7.12502
lthumb 9.67718 50.6014
rfemur -10.5249 2.37886 20.7535
rtibia 38.4696
rfoot -22.4043 5.1342
rtoes 11.3055
lfemur -10.0325 -2.59556 -18.7373
ltibia 27.0164
lfoot -9.06466 -19.837
ltoes 29.2245
4164
root 30.3501 17.8802 0.638279 -3.09985 262.856 4.20045
lowerback 5.55975 0.170131 0.169631
upperback 2.33221 0.188649 2.76544
thorax -0.726235 0.0503438 2.73808
lowerneck -13.4655 -0.604489 -8.26764
upperneck 37.3152 -1.17311 2.73012
head 15.4191 -1.84773 2.28418
rclavicle 3.47873e-015 -4.37326e-014
rhumerus -31.9642 -1.70037 -84.7281
rradius 37.5682
rwrist -13.1654
rhand -22.8613 11.735
rfingers 7.12502
rthumb 3.57704 -18.2147
lclavicle 3.47873e-015 -4.37326e-014
lhumerus -34.6411 9.19531 83.3011
lradius 27.3513
lwrist 0.500966
lhand -16.8592 21.0071
lfingers 7.12502
lthumb 9.37118 50.7788
rfemur -10.6053 1.05302 21.1831
rtibia 37.6945
rfoot -21.6076 3.0739
rtoes 0.446528
lfemur -10.1104 -2.78689 -18.6348
ltibia 27.0599
lfoot -8.98356 -19.9332
ltoes 30.2336
4165
root 30.3403 17.8618 0.616918 -0.187094 263.25 1.30163
lowerback 5.522 0.213681 -0.0560501
upperback 2.35766 0.236653 2.58186
thorax -0.68166 0.0755503 2.67259
lowerneck -13.4638 -0.700145 -8.43955
upperneck 37.3292 -1.36872 3.01827
head 15.4435 -1.91264 2.40693
rclavicle 7.55382e-015 0
rhumerus -32.01 -1.67417 -84.8793
rradius 37.8418
rwrist -12.8129
rhand -22.5929 11.2548
rfingers 7.12502
rthumb 3.83619 -18.6904
lclavicle 7.55382e-015 0
lhumerus -34.4663 9.07091 83.3786
lradius 27.285
lwrist 0.383883
lhand -17.0426 21.0939
lfingers 7.12502
lthumb 9.19422 50.8734
rfemur -10.3039 1.1322 20.7914
rtibia 37.0789
rfoot -20.9619 3.61248
rtoes 5.985
lfemur -10.2845 -2.6971 -18.9874
ltibia 27.2807
lfoot -9.05665 -20.3716
ltoes 30.7471
4166
root 30.3283 17.8602 0.593351 4.91723 263.734 -3.63122
lowerback 5.32614 0.147037 -0.608074
upperback 2.31769 0.124792 2.48477
thorax -0.609319 0.0195596 2.89003
lowerneck -13.3835 -0.713224 -8.64362
upperneck 37.2643 -1.32686 3.02409
head 15.3928 -1.91865 2.4521
rclavicle -9.83984e-015 -1.82882e-014
rhumerus -32.0395 -1.27793 -84.982
rradius 38.0656
rwrist -12.8867
rhand -22.6456 11.3747
rfingers 7.12502
rthumb 3.78533 -18.5715
lclavicle -9.83984e-015 -1.82882e-014
lhumerus -34.4795 9.52984 83.3996
lradius 27.3412
lwrist 0.141023
lhand -17.0459 21.1912
lfingers 7.12502
lthumb 9.19103 50.9709
rfemur -9.98803 1.10962 20.3033
rtibia 36.2171
rfoot -20.3087 3.20916
rtoes 8.73704
lfemur -10.8729 -2.62265 -19.4985
ltibia 27.9338
lfoot -9.33212 -20.8339
ltoes 30.2897
4167
root 30.3155 17.8782 0.566517 4.83941 264.041 -3.3554
lowerback 5.1387 0.118679 -0.578789
upperback 2.28622 0.0892645 2.52462
thorax -0.535308 0.00195078 2.91637
lowerneck -13.318 -0.698654 -8.58973
upperneck 37.2514 -1.22796 2.76775
head 15.3633 -1.90315 2.34895
rclavicle 1.82882e-014 -1.59028e-014
rhumerus -32.0566 -0.740052 -85.1923
rradius 38.3072
rwrist -13.3376
rhand -22.7716 11.2732
rfingers 7.12502
rthumb 3.66364 -18.6751
lclavicle 1.82882e-014 -1.59028e-014
lhumerus -34.5349 9.63085 83.5163
lradius 27.4957
lwrist 0.0322749
lhand -17.3951 21.4564
lfingers 7.12502
lthumb 8.85408 51.2506
rfemur -9.7825 1.14397 20.5087
rtibia 35.7793
rfoot -20.041 2.58235
rtoes 9.90758
lfemur -11.1732 -2.50408 -19.2723
ltibia 28.1072
lfoot -9.09584 -21.1582
ltoes 31.061
4168
root 30.3083 17.8774 0.537857 -0.661069 264.114 2.16396
lowerback 5.19279 0.215374 0.0170907
upperback 2.29017 0.243045 2.62133
thorax -0.56788 0.0802084 2.67169
lowerneck -13.1069 -0.722414 -8.36056
upperneck 37.1477 -1.25745 2.52726
head 15.2616 -1.91147 2.19978
rclavicle -1.90833e-014 5.56597e-015
rhumerus -32.1577 -0.391017 -85.3977
rradius 38.4573
rwrist -13.5036
rhand -22.708 11.1085
rfingers 7.12502
rthumb 3.72504 -18.8386
lclavicle -1.90833e-014 5.56597e-015
lhumerus -34.4883 9.54959 83.5543
lradius 27.4422
lwrist -0.253824
lhand -17.39 21.6902
lfingers 7.12502
lthumb 8.85899 51.4843
rfemur -9.43625 0.952814 21.3102
rtibia 35.3915
rfoot -20.0456 2.06168
rtoes 8.23843
lfemur -11.2194 -2.18834 -18.4827
ltibia 28.2609
lfoot -8.74254 -21.5572
ltoes 32.2691
4169
root 30.3033 17.8665 0.507223 -4.23314 264.084 5.71616
lowerback 5.26439 0.255967 0.273119
upperback 2.30614 0.307335 2.70726
thorax -0.59335 0.111924 2.61251
lowerneck -12.9351 -0.664513 -8.29784
upperneck 37.0486 -1.18089 2.47494
head 15.1655 -1.87386 2.17803
rclavicle 5.26779e-015 -1.51076e-014
rhumerus -32.188 0.0650249 -85.6073
rradius 38.4864
rwrist -13.5326
rhand -22.4106 11.1966
rfingers 7.12502
rthumb 4.0123 -18.7454
lclavicle 5.26779e-015 -1.51076e-014
lhumerus -34.4708 9.62492 83.5099
lradius 27.4005
lwrist -0.211392
lhand -17.2872 21.721
lfingers 7.12502
lthumb 8.95822 51.5108
rfemur -9.10603 0.890484 21.9176
rtibia 35.0303
rfoot -20.1545 1.82576
rtoes 7.54917
lfemur -11.1948 -2.10798 -17.9592
ltibia 28.3875
lfoot -8.76915 -21.6872
ltoes 32.3814
4170
root 30.2926 17.8689 0.48297 -3.78232 264.131 5.3483
lowerback 5.17039 0.277682 0.246693
upperback 2.29562 0.334729 2.69204
thorax -0.553098 0.125978 2.61022
lowerneck -13.0104 -0.608303 -8.70981
upperneck 37.2494 -1.10674 2.80896
head 15.2809 -1.86558 2.40746
rclavicle -6.95746e-016 -2.62396e-014
rhumerus -32.067 0.0774521 -85.676
rradius 38.398
rwrist -13.2626
rhand -21.9682 11.348
rfingers 7.12502
rthumb 4.43945 -18.5855
lclavicle -6.95746e-016 -2.62396e-014
lhumerus -34.5388 9.68029 83.6009
lradius 27.5008
lwrist 0.0489787
lhand -17.388 21.4251
lfingers 7.12502
lthumb 8.86094 51.219
rfemur -8.89529 0.931977 22.0026
rtibia 34.6936
rfoot -20.2461 2.30724
rtoes 10.4442
lfemur -11.2374 -2.50605 -17.932
ltibia 28.4705
lfoot -9.10313 -21.3946
ltoes 31.9857
